<svg xmlns="http://www.w3.org/2000/svg" version="1.1" xmlns:xlink="http://www.w3.org/1999/xlink" xmlns:svgjs="http://svgjs.dev/svgjs" width="1000" height="625" viewBox="0 0 1000 625"><g transform="matrix(1,0,0,1,0,0)"><svg viewBox="0 0 576 360" data-background-color="#7a26c1" preserveAspectRatio="xMidYMid meet" height="625" width="1000" xmlns="http://www.w3.org/2000/svg" xmlns:xlink="http://www.w3.org/1999/xlink"><defs></defs><g id="tight-bounds" transform="matrix(1,0,0,1,0,0)"><svg viewBox="0 0 576 360" height="360" width="576"><g><svg></svg></g><g><svg viewBox="0 0 576 360" height="360" width="576"><g><path d="M132.115 90l155.885-90 155.885 90v180l-155.885 90-155.885-90zM134.501 268.623l153.499 88.623 153.499-88.623v-177.246l-153.499-88.623-153.499 88.623z" fill="#a437db" data-fill-palette-color="tertiary"></path></g><g transform="matrix(1,0,0,1,172.8,119.8927816478408)"><svg viewBox="0 0 230.4 120.21443670431839" height="120.21443670431839" width="230.4"><g><svg viewBox="0 0 230.4 120.21443670431839" height="120.21443670431839" width="230.4"><g transform="matrix(1,0,0,1,0,72.36784578548227)"><svg viewBox="0 0 230.4 47.84659091883611" height="47.84659091883611" width="230.4"><g><svg viewBox="0 0 230.4 47.84659091883611" height="47.84659091883611" width="230.4"><g><svg viewBox="0 0 230.4 26.448504446240907" height="26.448504446240907" width="230.4"><g transform="matrix(1,0,0,1,0,0)"><svg width="230.4" viewBox="3.5 -35 309.2300109863281 35.5" height="26.448504446240907" data-palette-color="#a437db"><path d="M3.5 0L3.5-35 20.5-35Q24.35-35 27.18-34.33 30-33.65 31.85-32.43 33.7-31.2 34.6-29.5 35.5-27.8 35.5-25.75L35.5-25.75Q35.5-23.1 34-21.15 32.5-19.2 29.5-18.25L29.5-18.25Q33.25-17.5 35.38-15.33 37.5-13.15 37.5-9.75L37.5-9.75Q37.5-5.25 33.77-2.63 30.05 0 22 0L22 0 3.5 0ZM22-16L10.75-16 10.75-3.75 22-3.75Q25.75-3.75 27.75-5.25 29.75-6.75 29.75-9.75L29.75-9.75Q29.75-12.95 27.75-14.48 25.75-16 22-16L22-16ZM10.75-19.75L20.5-19.75Q27.75-19.75 27.75-25.75L27.75-25.75Q27.75-28.4 25.93-29.83 24.1-31.25 20.5-31.25L20.5-31.25 10.75-31.25 10.75-19.75ZM74-31.25L50.75-31.25 50.75-19.75 69-19.75 69-16 50.75-16 50.75-3.75 74-3.75 74 0 43.5 0 43.5-35 74-35 74-31.25ZM109.5-31.25L86.25-31.25 86.25-19.75 104.5-19.75 104.5-16 86.25-16 86.25-3.75 109.5-3.75 109.5 0 79 0 79-35 109.5-35 109.5-31.25ZM144.74-35L144.74-30.75 121.49-3.75 145.24-3.75 145.24 0 112.74 0 112.74-4.25 135.99-31.25 113.24-31.25 113.24-35 144.74-35ZM186.74-35L170.49-10.5 170.49 0 163.24 0 163.24-10.5 146.99-35 154.99-35 166.74-17.25 166.99-17.25 178.74-35 186.74-35ZM191.74-3.25L191.74-3.25Q191.74-1.75 190.71-0.63 189.69 0.5 187.99 0.5L187.99 0.5Q186.29 0.5 185.26-0.63 184.24-1.75 184.24-3.25L184.24-3.25Q184.24-4.75 185.26-5.88 186.29-7 187.99-7L187.99-7Q189.64-7 190.69-5.88 191.74-4.75 191.74-3.25ZM197.74-35L214.24-35Q218.74-35 222.41-33.88 226.09-32.75 228.71-30.55 231.34-28.35 232.79-25.08 234.24-21.8 234.24-17.5L234.24-17.5Q234.24-13.2 232.79-9.93 231.34-6.65 228.71-4.45 226.09-2.25 222.41-1.13 218.74 0 214.24 0L214.24 0 197.74 0 197.74-35ZM214.24-31.25L204.99-31.25 204.99-3.75 214.24-3.75Q216.79-3.75 219.01-4.53 221.24-5.3 222.89-6.98 224.54-8.65 225.51-11.25 226.49-13.85 226.49-17.5L226.49-17.5Q226.49-21.15 225.51-23.75 224.54-26.35 222.89-28.03 221.24-29.7 219.01-30.48 216.79-31.25 214.24-31.25L214.24-31.25ZM270.23-31.25L246.98-31.25 246.98-19.75 265.23-19.75 265.23-16 246.98-16 246.98-3.75 270.23-3.75 270.23 0 239.73 0 239.73-35 270.23-35 270.23-31.25ZM279.68-35L292.23-4.25 292.73-4.25 305.28-35 312.73-35 298.48 0 286.48 0 272.23-35 279.68-35Z" opacity="1" transform="matrix(1,0,0,1,0,0)" fill="#a437db" class="undefined-text-0" data-fill-palette-color="primary" id="text-0"></path></svg></g></svg></g><g transform="matrix(1,0,0,1,23.039999999999992,32.692361581891674)"><svg viewBox="0 0 184.32000000000002 15.154229336944432" height="15.154229336944432" width="184.32000000000002"><g transform="matrix(1,0,0,1,0,0)"><svg width="184.32000000000002" viewBox="1.2000000476837158 -31.860000610351562 504.7599792480469 41.5" height="15.154229336944432" data-palette-color="#bb84e8"><path d="M21.56-4.54L21.56 0 1.2 0 1.2-31.86 6.25-31.86 6.25-4.54 21.56-4.54ZM51-9.45L31.93-9.45Q32.3-7.1 34.16-5.55 36.03-4 39.18-4L39.18-4Q41.65-4 43.47-4.77 45.29-5.54 46.6-6.81L46.6-6.81 49.19-3.25Q46.99-1.05 44.54-0.24 42.09 0.56 39.18 0.56L39.18 0.56Q36.55 0.56 34.27-0.32 32-1.2 30.34-2.77 28.68-4.35 27.74-6.52 26.8-8.69 26.8-11.35L26.8-11.35Q26.8-13.94 27.67-16.13 28.54-18.31 30.11-19.91 31.69-21.51 33.88-22.4 36.08-23.29 38.74-23.29L38.74-23.29Q41.5-23.29 43.75-22.35 45.99-21.41 47.59-19.63 49.19-17.85 50.1-15.27 51-12.7 51-9.45L51-9.45ZM32.15-13.89L45.29-13.89Q44.89-16.09 43.02-17.42 41.14-18.75 38.74-18.75L38.74-18.75Q36.35-18.75 34.45-17.42 32.54-16.09 32.15-13.89L32.15-13.89ZM73.14-8.25L77.58-7.25Q77.19-3.66 74.76-1.55 72.33 0.56 68.7 0.56L68.7 0.56Q66.69 0.56 65.03-0.1 63.37-0.76 62.2-1.93 61.03-3.1 60.38-4.75 59.74-6.4 59.74-8.35L59.74-8.35 59.74-18.19 54.58-18.19 54.58-22.75 59.74-22.75 59.74-31.86 64.79-31.86 64.79-22.75 74.34-22.75 74.34-18.19 64.79-18.19 64.79-8.35Q64.79-6.15 65.86-5.08 66.94-4 68.7-4L68.7-4Q70.84-4 71.89-5.25 72.94-6.49 73.14-8.25L73.14-8.25ZM90.23-31.86L96.28-31.86 95.18-19.65 91.33-19.65 90.23-31.86ZM131.31-6.81L131.31-6.81Q131.31-4.59 130.31-3.2 129.31-1.81 127.74-0.95 126.16-0.1 124.22 0.23 122.28 0.56 120.42 0.56L120.42 0.56Q117.32 0.56 114.25-0.34 111.17-1.25 108.93-2.71L108.93-2.71 111.03-6.86Q113.71-5.3 115.94-4.65 118.18-4 120.42-4L120.42-4Q123.48-4 124.87-4.65 126.26-5.3 126.26-6.45L126.26-6.45Q126.26-7.01 125.87-7.37 125.48-7.74 124.57-8.04 123.67-8.35 122.19-8.65 120.72-8.96 118.52-9.3L118.52-9.3Q116.76-9.59 115.19-10.02 113.61-10.45 112.42-11.23 111.22-12.01 110.5-13.21 109.78-14.4 109.78-16.21L109.78-16.21Q109.78-18.04 110.72-19.4 111.66-20.75 113.19-21.63 114.71-22.51 116.62-22.9 118.52-23.29 120.42-23.29L120.42-23.29Q123.11-23.29 125.64-22.6 128.16-21.9 130.07-20.61L130.07-20.61 128.07-16.7Q126.16-17.9 124.37-18.32 122.57-18.75 120.42-18.75L120.42-18.75Q119.52-18.75 118.54-18.65 117.57-18.55 116.74-18.27 115.91-17.99 115.36-17.52 114.81-17.04 114.81-16.36L114.81-16.36Q114.81-15.45 116.41-14.88 118.01-14.31 121.87-13.75L121.87-13.75Q123.96-13.45 125.7-13 127.43-12.55 128.68-11.78 129.92-11.01 130.62-9.8 131.31-8.59 131.31-6.81ZM185.31-31.86L185.31 0 180.26 0 180.26-2.1Q178.79-0.81 177.3-0.12 175.82 0.56 173.91 0.56L173.91 0.56Q171.71 0.56 169.83-0.32 167.95-1.2 166.6-2.77 165.24-4.35 164.47-6.54 163.71-8.74 163.71-11.35L163.71-11.35Q163.71-13.94 164.47-16.15 165.24-18.36 166.6-19.93 167.95-21.51 169.83-22.4 171.71-23.29 173.91-23.29L173.91-23.29Q175.82-23.29 177.3-22.64 178.79-22 180.26-20.7L180.26-20.7 180.26-27.29 175.86-27.29 175.86-31.86 185.31-31.86ZM180.26-6.05L180.26-16.7Q179.36-17.7 177.93-18.23 176.5-18.75 175.2-18.75L175.2-18.75Q172.35-18.75 170.55-16.7 168.76-14.65 168.76-11.35L168.76-11.35Q168.76-8.06 170.55-6.03 172.35-4 175.2-4L175.2-4Q176.5-4 177.93-4.53 179.36-5.05 180.26-6.05L180.26-6.05ZM214.75-9.45L195.69-9.45Q196.05-7.1 197.92-5.55 199.79-4 202.94-4L202.94-4Q205.4-4 207.22-4.77 209.04-5.54 210.36-6.81L210.36-6.81 212.95-3.25Q210.75-1.05 208.3-0.24 205.84 0.56 202.94 0.56L202.94 0.56Q200.3 0.56 198.03-0.32 195.76-1.2 194.1-2.77 192.44-4.35 191.5-6.52 190.56-8.69 190.56-11.35L190.56-11.35Q190.56-13.94 191.43-16.13 192.29-18.31 193.87-19.91 195.44-21.51 197.64-22.4 199.84-23.29 202.5-23.29L202.5-23.29Q205.26-23.29 207.5-22.35 209.75-21.41 211.35-19.63 212.95-17.85 213.85-15.27 214.75-12.7 214.75-9.45L214.75-9.45ZM195.91-13.89L209.04-13.89Q208.65-16.09 206.77-17.42 204.89-18.75 202.5-18.75L202.5-18.75Q200.1-18.75 198.2-17.42 196.3-16.09 195.91-13.89L195.91-13.89ZM235.7-22.75L241.09-22.75 232.69 0 226.74 0 218.34-22.75 223.73-22.75 229.74-5.54 235.7-22.75ZM291.48-8.25L295.92-7.25Q295.53-3.66 293.1-1.55 290.67 0.56 287.04 0.56L287.04 0.56Q285.03 0.56 283.37-0.1 281.71-0.76 280.54-1.93 279.37-3.1 278.72-4.75 278.08-6.4 278.08-8.35L278.08-8.35 278.08-18.19 272.92-18.19 272.92-22.75 278.08-22.75 278.08-31.86 283.13-31.86 283.13-22.75 292.68-22.75 292.68-18.19 283.13-18.19 283.13-8.35Q283.13-6.15 284.2-5.08 285.28-4 287.04-4L287.04-4Q289.18-4 290.23-5.25 291.28-6.49 291.48-8.25L291.48-8.25ZM323.56-11.35L323.56-11.35Q323.56-8.69 322.71-6.52 321.87-4.35 320.3-2.77 318.72-1.2 316.53-0.32 314.33 0.56 311.62 0.56L311.62 0.56Q308.96 0.56 306.76-0.32 304.56-1.2 302.99-2.77 301.41-4.35 300.57-6.52 299.73-8.69 299.73-11.35L299.73-11.35Q299.73-13.94 300.57-16.15 301.41-18.36 302.99-19.96 304.56-21.56 306.76-22.42 308.96-23.29 311.62-23.29L311.62-23.29Q314.33-23.29 316.53-22.42 318.72-21.56 320.3-19.96 321.87-18.36 322.71-16.15 323.56-13.94 323.56-11.35ZM318.53-11.35L318.53-11.35Q318.53-12.89 318.05-14.27 317.58-15.65 316.67-16.63 315.77-17.6 314.49-18.18 313.2-18.75 311.62-18.75L311.62-18.75Q310.01-18.75 308.74-18.18 307.47-17.6 306.59-16.63 305.71-15.65 305.23-14.27 304.76-12.89 304.76-11.35L304.76-11.35Q304.76-9.74 305.23-8.42 305.71-7.1 306.59-6.1 307.47-5.1 308.74-4.55 310.01-4 311.62-4L311.62-4Q313.2-4 314.49-4.55 315.77-5.1 316.67-6.1 317.58-7.1 318.05-8.42 318.53-9.74 318.53-11.35ZM349.07-22.75L349.07-0.24Q349.07 2.1 348.26 3.93 347.46 5.76 346 7.03 344.55 8.3 342.58 8.97 340.62 9.64 338.2 9.64L338.2 9.64Q332.27 9.64 328.07 6.05L328.07 6.05 330.46 2.15Q333.95 5.15 338.2 5.15L338.2 5.15Q340.81 5.15 342.41 3.87 344.01 2.59 344.01-0.15L344.01-0.15 344.01-2.59Q342.45-1.25 341.01-0.6 339.57 0.05 337.67 0.05L337.67 0.05Q335.47 0.05 333.59-0.88 331.71-1.81 330.35-3.41 329-5 328.23-7.13 327.46-9.25 327.46-11.65L327.46-11.65Q327.46-14.04 328.23-16.17 329-18.31 330.35-19.89 331.71-21.46 333.59-22.38 335.47-23.29 337.67-23.29L337.67-23.29Q339.57-23.29 341.06-22.64 342.55-22 344.01-20.7L344.01-20.7 344.01-22.75 349.07-22.75ZM344.01-6.59L344.01-16.7Q343.11-17.7 341.68-18.23 340.25-18.75 338.91-18.75L338.91-18.75Q336.05-18.75 334.28-16.75 332.51-14.75 332.51-11.65L332.51-11.65Q332.51-10.11 332.99-8.8 333.47-7.5 334.31-6.54 335.15-5.59 336.33-5.04 337.52-4.49 338.91-4.49L338.91-4.49Q340.25-4.49 341.68-5.04 343.11-5.59 344.01-6.59L344.01-6.59ZM378.51-9.45L359.44-9.45Q359.81-7.1 361.67-5.55 363.54-4 366.69-4L366.69-4Q369.16-4 370.98-4.77 372.79-5.54 374.11-6.81L374.11-6.81 376.7-3.25Q374.5-1.05 372.05-0.24 369.6 0.56 366.69 0.56L366.69 0.56Q364.05 0.56 361.78-0.32 359.51-1.2 357.85-2.77 356.19-4.35 355.25-6.52 354.31-8.69 354.31-11.35L354.31-11.35Q354.31-13.94 355.18-16.13 356.05-18.31 357.62-19.91 359.2-21.51 361.39-22.4 363.59-23.29 366.25-23.29L366.25-23.29Q369.01-23.29 371.26-22.35 373.5-21.41 375.1-19.63 376.7-17.85 377.6-15.27 378.51-12.7 378.51-9.45L378.51-9.45ZM359.66-13.89L372.79-13.89Q372.4-16.09 370.52-17.42 368.64-18.75 366.25-18.75L366.25-18.75Q363.86-18.75 361.95-17.42 360.05-16.09 359.66-13.89L359.66-13.89ZM400.65-8.25L405.09-7.25Q404.7-3.66 402.27-1.55 399.84 0.56 396.21 0.56L396.21 0.56Q394.2 0.56 392.54-0.1 390.88-0.76 389.71-1.93 388.54-3.1 387.89-4.75 387.25-6.4 387.25-8.35L387.25-8.35 387.25-18.19 382.09-18.19 382.09-22.75 387.25-22.75 387.25-31.86 392.3-31.86 392.3-22.75 401.84-22.75 401.84-18.19 392.3-18.19 392.3-8.35Q392.3-6.15 393.37-5.08 394.45-4 396.21-4L396.21-4Q398.35-4 399.4-5.25 400.45-6.49 400.65-8.25L400.65-8.25ZM430.94-14.04L430.94 0 425.89 0 425.89-14.04Q425.89-16.7 424.89-17.72 423.89-18.75 421.98-18.75L421.98-18.75Q419.18-18.75 417.41-16.48 415.64-14.21 415.64-10.21L415.64-10.21 415.64 0 410.58 0 410.58-31.86 415.64-31.86 415.64-17.04Q416.39-20 418.44-21.64 420.49-23.29 423.5-23.29L423.5-23.29Q426.99-23.29 428.97-21.02 430.94-18.75 430.94-14.04L430.94-14.04ZM460.38-9.45L441.32-9.45Q441.68-7.1 443.55-5.55 445.42-4 448.57-4L448.57-4Q451.03-4 452.85-4.77 454.67-5.54 455.99-6.81L455.99-6.81 458.58-3.25Q456.38-1.05 453.93-0.24 451.47 0.56 448.57 0.56L448.57 0.56Q445.93 0.56 443.66-0.32 441.39-1.2 439.73-2.77 438.07-4.35 437.13-6.52 436.19-8.69 436.19-11.35L436.19-11.35Q436.19-13.94 437.06-16.13 437.92-18.31 439.5-19.91 441.07-21.51 443.27-22.4 445.47-23.29 448.13-23.29L448.13-23.29Q450.89-23.29 453.13-22.35 455.38-21.41 456.98-19.63 458.58-17.85 459.48-15.27 460.38-12.7 460.38-9.45L460.38-9.45ZM441.54-13.89L454.67-13.89Q454.28-16.09 452.4-17.42 450.52-18.75 448.13-18.75L448.13-18.75Q445.74-18.75 443.83-17.42 441.93-16.09 441.54-13.89L441.54-13.89ZM488.07-22.29L486.16-17.36Q485.26-17.8 484.32-18.03 483.38-18.26 482.16-18.26L482.16-18.26Q480.48-18.26 479-17.76 477.52-17.26 476.45-16.26 475.37-15.26 474.77-13.76 474.18-12.26 474.18-10.21L474.18-10.21 474.18-4.54 479.28-4.54 479.28 0 463.97 0 463.97-4.54 469.12-4.54 469.12-18.19 463.97-18.19 463.97-22.75 474.18-22.75 474.18-17.04Q475.42-20.46 477.85-21.88 480.28-23.29 483.62-23.29L483.62-23.29Q484.67-23.29 485.82-23.07 486.97-22.85 488.07-22.29L488.07-22.29ZM499.32-31.86L505.96-31.86 504.72-9.11 500.57-9.11 499.32-31.86ZM505.72-6.15L505.72 0 499.56 0 499.56-6.15 505.72-6.15Z" opacity="1" transform="matrix(1,0,0,1,0,0)" fill="#bb84e8" class="undefined-text-1" data-fill-palette-color="secondary" id="text-1"></path></svg></g></svg></g></svg></g></svg></g><g transform="matrix(1,0,0,1,62.96804052567069,0)"><svg viewBox="0 0 104.46391894865863 66.1239886498315" height="66.1239886498315" width="104.46391894865863"><g><svg xmlns="http://www.w3.org/2000/svg" xmlns:xlink="http://www.w3.org/1999/xlink" version="1.1" x="8" y="0" viewBox="1.100000023841858 13.400001525878906 97.80000305175781 73.1024169921875" enable-background="new 0 0 100 100" xml:space="preserve" height="66.1239886498315" width="88.46391894865863" class="icon-icon-0" data-fill-palette-color="accent" id="icon-0"><path d="M1.1 79.9v-4.1h5.4 0.3V33.2c0-3.4 2.7-6.1 6.1-6.1h23.7c-0.5 2-0.8 4.1-0.8 6.3 0 0.7 0 1.3 0.1 2H15v40.4h21.2v0.4c0 1.3 1 2.3 2.3 2.3h11.6c1.3 0 2.3-1 2.3-2.3v-0.4h21.2V58.5H79c1 0 2-0.1 3-0.2v17.4h0.3 5.4v4.1c0 3.7-3 6.7-6.7 6.7h-6.4H14.2 7.8C4.1 86.6 1.1 83.6 1.1 79.9zM40.8 33.4c0-11 9-20 20-20h18.1c11 0 20 9 20 20 0 11-9 20-20 20H65.4l-9.2 9.2c-0.6 0.6-1.7 0.2-1.7-0.7v-9.5C46.5 49.7 40.8 42.3 40.8 33.4zM52.7 33.5c0 1.1 0.2 2.1 0.6 3.1 0.4 1 1 1.9 1.8 2.7 0.8 0.8 1.7 1.4 2.7 1.8 1 0.4 2 0.6 3.1 0.6 1.1 0 2.1-0.2 3.1-0.6 1-0.4 1.9-1 2.7-1.8l0.6-0.6-2.6-2.6-0.6 0.6c-0.9 0.9-2 1.3-3.2 1.3-1.2 0-2.3-0.5-3.2-1.3-0.9-0.9-1.3-2-1.3-3.2s0.5-2.3 1.3-3.2c0.9-0.9 2-1.3 3.2-1.3 1.2 0 2.3 0.5 3.2 1.3l3.2 3.2 5.8 5.8c0.8 0.8 1.7 1.4 2.7 1.8 1 0.4 2 0.6 3.1 0.6 1.1 0 2.1-0.2 3.1-0.6 1-0.4 1.9-1 2.7-1.8 0.8-0.8 1.4-1.7 1.8-2.7 0.4-1 0.6-2 0.6-3.1 0-1.1-0.2-2.1-0.6-3.1-0.4-1-1-1.9-1.8-2.7-0.8-0.8-1.7-1.4-2.7-1.8-1-0.4-2-0.6-3.1-0.6-1.1 0-2.1 0.2-3.1 0.6-1 0.4-1.9 1-2.7 1.8l-0.7 0.7L75 31l0.7-0.7c0.9-0.9 2-1.3 3.2-1.3 1.2 0 2.3 0.5 3.2 1.3 0.9 0.9 1.3 2 1.3 3.2s-0.5 2.3-1.3 3.2c-0.9 0.9-2 1.3-3.2 1.3-1.2 0-2.3-0.5-3.2-1.3l-1.3-1.3-7.7-7.7c-0.8-0.8-1.7-1.4-2.7-1.8-1-0.4-2-0.6-3.1-0.6-1.1 0-2.1 0.2-3.1 0.6-1 0.4-1.9 1-2.7 1.8-0.8 0.8-1.4 1.7-1.8 2.7C52.9 31.4 52.7 32.4 52.7 33.5z" fill="#bb84e8" data-fill-palette-color="accent"></path></svg></g></svg></g><g><rect width="62.96804052567069" height="2.3851534258185936" y="62.73883522401291" x="167.43195947432932" fill="#bb84e8" data-fill-palette-color="accent"></rect><rect width="62.96804052567069" height="2.3851534258185936" y="62.73883522401291" x="0" fill="#bb84e8" data-fill-palette-color="accent"></rect><rect width="62.96804052567069" height="2.3851534258185936" y="57.96852837237572" x="167.43195947432932" fill="#bb84e8" data-fill-palette-color="accent"></rect><rect width="62.96804052567069" height="2.3851534258185936" y="57.96852837237572" x="0" fill="#bb84e8" data-fill-palette-color="accent"></rect></g></svg></g></svg></g></svg></g></svg><rect width="576" height="360" fill="none" stroke="none" visibility="hidden"></rect></g></svg></g></svg>